<?xml version="1.0" encoding="UTF-8"?>
<svg version="1.1" viewBox="0 0 2048 2048" xmlns="http://www.w3.org/2000/svg" role="img" aria-labelledby="title">
<title id="title">Mail Manager</title>
<path transform="translate(1801,442)" d="m0 0h29l17 3 14 5 14 7 12 9 13 12 8 10 8 14 5 12 4 14 2 17v1090l-2 12-6 10-9 8-8 4-8 2h-134l-11-2-9-5-5-5-5-6-3-9-1-855-5-10-7-7-10-4h-16l-10 4-10 8-7 7-11 9-26 22-10 8-15 13-10 9-11 9-13 11-14 11-13 11-14 12-12 10-10 8-16 13-14 12-13 11-14 11-16 13-13 11-22 18-16 13-9 7-13 11-11 9-12 10-12 9-13 10-4 2 1-6v-37l-3-19-6-21-8-19-9-15-12-17-12-14-13-11-13-8-3-2v-2l11-8 11-10 8-7 10-9 14-12 11-9 13-12 11-9 11-10 14-11 28-24 12-11 17-13 11-9 12-11 11-9 11-10 14-11 12-11 11-9 11-10 11-9 16-13 12-11 10-8 30-26 11-9 15-13 10-9 14-12 17-14 13-11 13-12 11-9 12-10 11-9 10-9 11-9 12-11 14-11 13-10 10-6 15-6 14-4z" fill="#CF4B2C"/>
<path transform="translate(163,911)" d="m0 0 22 1 22 4 17 5 14 6 16 10 13 10 13 13 13 17 8 13 624 1 65-1 2-5 9-13 11-13 15-15 14-10 21-11 20-7 20-4 12-1h15l18 2 22 5 20 8 17 10 13 10 16 16 10 13 9 15 7 15 4 13 4 24v32l-3 19-5 17-7 16-8 14-10 13-12 13-8 8-12 9-12 7-24 10-21 5-17 2h-21l-21-3-20-6-15-6-16-9-13-10-12-11-7-8-8-10-8-14-7-12-685-1-2 5-11 20-9 13-6 7-8 7-13 11-14 9-16 8-19 6-17 3-8 1h-16l-24-3-21-6-15-7-14-8-12-9-14-12-11-12-10-15-10-22-4-13-3-17-1-12v-25l4-22 8-24 8-16 7-11 11-12 7-8 10-9 17-12 17-9 21-7 19-4z" fill="#CF4B2C"/>
<path transform="translate(152,406)" d="m0 0h33l19 3 15 4 25 12 14 9 11 9 13 13 14 19 3 5 2 1 280 1 18 2 25 5 23 7 18 8 13 7 17 11 19 14 7 7 8 7 11 12 14 15 8 8 7 8 13 15 9 10 15 16 11 12 12 13 7 8 11 12 9 10 11 12 12 14 13 14 7 8 14 15 10 11 7 8 12 13 7 8 15 16 7 8 7 7 7 8 9 10 7 8 16 17 19 19v2h2l5 5 7 6-3 3-14 8-19 13-11 9-4 4h-2l-2 4-11 12-8 11-1 1h-35l-13-4-16-8-11-8-12-11-15-16-7-8-11-12-16-17-13-14-7-8-12-13-16-17-14-15-7-8-12-13-30-32-9-10-7-8-22-24-9-9-9-11-12-13-32-32-15-11-17-10-21-9-21-6-18-3-11-1h-227l-8 16-9 15-10 13-13 13-14 10-15 9-11 5-20 6-18 3h-31l-21-4-16-5-17-8-16-10-10-8-10-9-9-10-10-15-11-21-6-19-4-23v-27l3-21 5-17 7-17 6-11 8-11 13-15 8-8 14-11 15-9 23-10 18-5z" fill="#CF4B2C"/>
<path transform="translate(933,1146)" d="m0 0h34l4 4 7 12 10 13 11 12 11 10 15 10 14 8 4 2-33 33h-2v2l-8 7-8 8-8 7-7 7-1 2h-2l-2 4-14 14-8 7-45 45-8 7-52 52-8 7-42 42-8 7-7 7-7 8-13 13-8 7-4 5-8 7-25 25-11 9-14 11-17 11-21 12-17 8-21 8-23 6-27 4-11 1-255 1-2 1-8 16-7 11-10 13-10 10-10 8-10 7-19 10-21 7-15 3-11 1h-26l-19-4-22-7-12-5-14-9-13-10-14-13-9-11-7-10-11-23-6-21-3-22v-29l3-17 6-19 7-16 8-14 9-11 14-15 15-12 15-10 20-9 25-7 14-2h24l25 4 17 5 15 6 11 6 14 10 12 11 11 12 12 17 7 12h205l17-2 21-5 19-7 16-8 18-10 17-12 13-11 15-15 8-7 33-33 5-6 8-7 11-11 8-7 10-10 7-8 19-19 8-7 13-13 7-8 17-17 8-7 22-22 7-8 9-9 8-7 7-7h2l1-3h2l2-4 27-27 13-10 17-9z" fill="#CF4B2C"/>
<path transform="translate(1596,963)" d="m0 0h17l13 4 8 6 7 8 4 9 1 5v621l-1 30-5 10-9 9-9 4-4 1-38 1h-74l-13-4-10-9-5-8-3-8-1-8v-394l-3-7-6-5-8-1-8 4-12 9-16 13-19 14-13 10-15 12-15 11-20 14-13 6-8 2h-14l-13-4-11-7-13-10-21-16-28-21 4-4 13-10 14-11 11-9 14-12 13-10 13-11 14-11 10-9 17-13 16-13 11-9 13-11 14-11 12-10 35-28 15-13 14-11 9-8 14-11 11-9 13-11 13-10 10-8 17-13 12-11 11-8 8-4z" fill="#CF4B2C"/>
</svg>
